<svg width="280" height="155" viewBox="0 0 280 155" fill="none" xmlns="http://www.w3.org/2000/svg">
<path d="M64.745 51.1094C65.7077 51.1161 66.6698 51.1228 67.5883 51.1228H76.9331C77.8514 51.1228 78.8136 51.1161 79.7762 51.1094C82.3679 51.0914 84.9634 51.0733 86.7201 51.1858C93.115 51.5953 97.5253 55.4701 98.0923 62.054C98.2268 64.4199 98.2235 67.2699 98.2197 70.6311C98.219 71.2079 98.2184 71.8009 98.2184 72.408V81.7528C98.2184 82.36 98.219 82.9519 98.2197 83.5288C98.2235 86.8904 98.2268 89.7409 98.0923 92.1069C97.5253 98.6908 93.115 102.566 86.7201 102.975C84.9634 103.088 82.3679 103.07 79.7762 103.052C78.8136 103.045 77.8514 103.038 76.9331 103.038H67.5883C66.6698 103.038 65.7077 103.045 64.745 103.052C62.1535 103.07 59.558 103.088 57.8013 102.975C51.4064 102.566 46.9961 98.6908 46.429 92.1069C46.2946 89.741 46.2979 86.8909 46.3017 83.5298C46.3023 82.953 46.303 82.36 46.303 81.7528V72.408C46.303 71.8009 46.3023 71.2089 46.3017 70.6321C46.2979 67.2709 46.2946 64.4199 46.429 62.054C46.9961 55.4701 51.4064 51.5953 57.8013 51.1858C59.558 51.0733 62.1535 51.0914 64.745 51.1094Z" fill="url(#paint0_linear_0_1)"/>
<g filter="url(#filter0_dddddd_0_1)">
<path d="M54.7429 69.6191C54.7429 68.297 55.8148 67.225 57.1371 67.225H73.8962C77.2366 67.225 79.9445 69.933 79.9445 73.2735V84.4252C79.9445 85.7474 78.8727 86.8192 77.5504 86.8192H60.7913C57.4509 86.8192 54.7429 84.1113 54.7429 80.7709V69.6191Z" fill="url(#paint1_linear_0_1)"/>
<path d="M57.1371 67.5086H73.8962C77.08 67.5086 79.661 70.0896 79.661 73.2735V84.4252C79.661 85.5908 78.7161 86.5357 77.5504 86.5357H60.7913C57.6074 86.5357 55.0264 83.9547 55.0264 80.771V69.6191C55.0264 68.4535 55.9714 67.5086 57.1371 67.5086Z" stroke="url(#paint2_linear_0_1)" stroke-width="0.567037"/>
</g>
<g filter="url(#filter1_dddddd_0_1)">
<path d="M81.4566 74.1623C81.4566 73.3473 81.8073 72.5717 82.4191 72.0335L87.2206 67.8096C88.2382 66.9145 89.8361 67.637 89.8361 68.9922V85.1001C89.8361 86.4426 88.2643 87.1697 87.2413 86.3005L82.8336 82.5557C81.9601 81.8136 81.4566 80.7252 81.4566 79.5789V74.1623Z" fill="url(#paint3_linear_0_1)"/>
<path d="M82.6064 72.2464L87.4079 68.0225C88.2424 67.2884 89.5526 67.8809 89.5526 68.9922V85.1001C89.5526 86.201 88.2636 86.7972 87.4248 86.0844L83.0172 82.3396C82.207 81.6513 81.7401 80.6419 81.7401 79.5789V74.1623C81.7401 73.4288 82.0557 72.7308 82.6064 72.2464Z" stroke="url(#paint4_linear_0_1)" stroke-width="0.567037"/>
</g>
<path d="M149.745 63.5C152.233 63.5 154.478 64.0171 156.49 65.043L156.89 65.2549H156.891C158.875 66.3453 160.477 67.9091 161.697 69.959L161.937 70.375C163.177 72.6172 163.81 75.3736 163.81 78.666C163.81 81.7531 163.253 84.3687 162.161 86.5312L161.937 86.957C160.767 89.0718 159.215 90.7001 157.282 91.8535L156.891 92.0771L156.89 92.0781C154.776 93.2448 152.398 93.832 149.745 93.832C147.249 93.832 144.999 93.3115 142.986 92.2773L142.587 92.0635C140.48 90.8907 138.803 89.189 137.555 86.9434H137.556C136.325 84.7006 135.696 81.9488 135.696 78.666C135.696 75.3731 136.325 72.6165 137.556 70.374L137.555 70.373C138.725 68.2585 140.272 66.6316 142.196 65.4785L142.586 65.2549C144.699 64.0883 147.082 63.5 149.745 63.5ZM182.835 63.5C185.323 63.5001 187.568 64.0169 189.581 65.043L189.98 65.2549H189.981C192.097 66.4179 193.779 68.1195 195.026 70.375C196.267 72.6172 196.899 75.3736 196.899 78.666C196.899 81.9584 196.267 84.7149 195.026 86.957C193.857 89.0717 192.306 90.7001 190.373 91.8535L189.981 92.0771L189.98 92.0781C187.866 93.245 185.489 93.832 182.835 93.832C180.339 93.832 178.089 93.3115 176.076 92.2773L175.677 92.0635C173.57 90.8907 171.892 89.1892 170.645 86.9434H170.646C169.415 84.7007 168.786 81.9488 168.786 78.666C168.786 75.3731 169.415 72.6165 170.646 70.374L170.645 70.373C171.814 68.2586 173.362 66.6316 175.285 65.4785L175.675 65.2549C177.789 64.0882 180.172 63.5 182.835 63.5ZM112.709 63.917L119.04 78.8613L119.491 79.9277L119.958 78.8672L126.531 63.917H132.731L124.043 83.4971L119.252 93.6846L114.454 83.4902L105.769 63.917H112.709ZM210.496 63.917L218.113 82.4893L218.24 82.7998H219.269L219.396 82.4893L227.012 63.917H235.306V93.415H229.127V74.6816H228.034L227.909 74.998L220.707 93.2217H216.802L209.6 74.8945L209.475 74.5771H208.381V93.415H202.202V63.917H210.496ZM149.745 68.9629C148.299 68.9629 147.016 69.2919 145.917 69.9658L145.699 70.1045C144.623 70.8253 143.794 71.8575 143.203 73.1748L143.088 73.4424L143.087 73.4443C142.5 74.8906 142.217 76.6369 142.217 78.666C142.217 80.5686 142.466 82.2222 142.98 83.6133L143.087 83.8877L143.088 83.8906C143.648 85.2457 144.444 86.317 145.487 87.0791L145.699 87.2275C146.846 87.9956 148.202 88.3691 149.745 88.3691C151.297 88.3691 152.655 87.9962 153.793 87.2266L153.792 87.2256C154.939 86.4568 155.801 85.3354 156.388 83.8906C156.986 82.4433 157.274 80.6962 157.274 78.666C157.274 76.7629 157.02 75.1086 156.496 73.7168L156.388 73.4424C155.801 71.9968 154.939 70.8734 153.791 70.1045H153.79C152.652 69.3361 151.296 68.9629 149.745 68.9629ZM182.835 68.9629C181.292 68.9629 179.936 69.3366 178.789 70.1045C177.713 70.8253 176.884 71.8577 176.293 73.1748L176.178 73.4424L176.177 73.4443C175.59 74.8906 175.306 76.6369 175.306 78.666C175.306 80.5686 175.554 82.2222 176.069 83.6133L176.177 83.8877L176.178 83.8906C176.775 85.336 177.641 86.4587 178.789 87.2275C179.936 87.9955 181.292 88.3691 182.835 88.3691C184.386 88.3691 185.743 87.9954 186.881 87.2266L186.882 87.2275C188.029 86.4583 188.892 85.3346 189.479 83.8877L189.479 83.8867C190.074 82.4402 190.363 80.6948 190.363 78.666C190.363 76.6367 190.074 74.891 189.478 73.4443H189.479C188.892 71.9977 188.029 70.8746 186.882 70.1055H186.881C185.743 69.3367 184.386 68.9629 182.835 68.9629Z" fill="white"/>
<path d="M149.745 63.5C152.233 63.5 154.478 64.0171 156.49 65.043L156.89 65.2549H156.891C158.875 66.3453 160.477 67.9091 161.697 69.959L161.937 70.375C163.177 72.6172 163.81 75.3736 163.81 78.666C163.81 81.7531 163.253 84.3687 162.161 86.5312L161.937 86.957C160.767 89.0718 159.215 90.7001 157.282 91.8535L156.891 92.0771L156.89 92.0781C154.776 93.2448 152.398 93.832 149.745 93.832C147.249 93.832 144.999 93.3115 142.986 92.2773L142.587 92.0635C140.48 90.8907 138.803 89.189 137.555 86.9434H137.556C136.325 84.7006 135.696 81.9488 135.696 78.666C135.696 75.3731 136.325 72.6165 137.556 70.374L137.555 70.373C138.725 68.2585 140.272 66.6316 142.196 65.4785L142.586 65.2549C144.699 64.0883 147.082 63.5 149.745 63.5ZM182.835 63.5C185.323 63.5001 187.568 64.0169 189.581 65.043L189.98 65.2549H189.981C192.097 66.4179 193.779 68.1195 195.026 70.375C196.267 72.6172 196.899 75.3736 196.899 78.666C196.899 81.9584 196.267 84.7149 195.026 86.957C193.857 89.0717 192.306 90.7001 190.373 91.8535L189.981 92.0771L189.98 92.0781C187.866 93.245 185.489 93.832 182.835 93.832C180.339 93.832 178.089 93.3115 176.076 92.2773L175.677 92.0635C173.57 90.8907 171.892 89.1892 170.645 86.9434H170.646C169.415 84.7007 168.786 81.9488 168.786 78.666C168.786 75.3731 169.415 72.6165 170.646 70.374L170.645 70.373C171.814 68.2586 173.362 66.6316 175.285 65.4785L175.675 65.2549C177.789 64.0882 180.172 63.5 182.835 63.5ZM112.709 63.917L119.04 78.8613L119.491 79.9277L119.958 78.8672L126.531 63.917H132.731L124.043 83.4971L119.252 93.6846L114.454 83.4902L105.769 63.917H112.709ZM210.496 63.917L218.113 82.4893L218.24 82.7998H219.269L219.396 82.4893L227.012 63.917H235.306V93.415H229.127V74.6816H228.034L227.909 74.998L220.707 93.2217H216.802L209.6 74.8945L209.475 74.5771H208.381V93.415H202.202V63.917H210.496ZM149.745 68.9629C148.299 68.9629 147.016 69.2919 145.917 69.9658L145.699 70.1045C144.623 70.8253 143.794 71.8575 143.203 73.1748L143.088 73.4424L143.087 73.4443C142.5 74.8906 142.217 76.6369 142.217 78.666C142.217 80.5686 142.466 82.2222 142.98 83.6133L143.087 83.8877L143.088 83.8906C143.648 85.2457 144.444 86.317 145.487 87.0791L145.699 87.2275C146.846 87.9956 148.202 88.3691 149.745 88.3691C151.297 88.3691 152.655 87.9962 153.793 87.2266L153.792 87.2256C154.939 86.4568 155.801 85.3354 156.388 83.8906C156.986 82.4433 157.274 80.6962 157.274 78.666C157.274 76.7629 157.02 75.1086 156.496 73.7168L156.388 73.4424C155.801 71.9968 154.939 70.8734 153.791 70.1045H153.79C152.652 69.3361 151.296 68.9629 149.745 68.9629ZM182.835 68.9629C181.292 68.9629 179.936 69.3366 178.789 70.1045C177.713 70.8253 176.884 71.8577 176.293 73.1748L176.178 73.4424L176.177 73.4443C175.59 74.8906 175.306 76.6369 175.306 78.666C175.306 80.5686 175.554 82.2222 176.069 83.6133L176.177 83.8877L176.178 83.8906C176.775 85.336 177.641 86.4587 178.789 87.2275C179.936 87.9955 181.292 88.3691 182.835 88.3691C184.386 88.3691 185.743 87.9954 186.881 87.2266L186.882 87.2275C188.029 86.4583 188.892 85.3346 189.479 83.8877L189.479 83.8867C190.074 82.4402 190.363 80.6948 190.363 78.666C190.363 76.6367 190.074 74.891 189.478 73.4443H189.479C188.892 71.9977 188.029 70.8746 186.882 70.1055H186.881C185.743 69.3367 184.386 68.9629 182.835 68.9629Z" stroke="black"/>
<path d="M149.745 63.5C152.233 63.5 154.478 64.0171 156.49 65.043L156.89 65.2549H156.891C158.875 66.3453 160.477 67.9091 161.697 69.959L161.937 70.375C163.177 72.6172 163.81 75.3736 163.81 78.666C163.81 81.7531 163.253 84.3687 162.161 86.5312L161.937 86.957C160.767 89.0718 159.215 90.7001 157.282 91.8535L156.891 92.0771L156.89 92.0781C154.776 93.2448 152.398 93.832 149.745 93.832C147.249 93.832 144.999 93.3115 142.986 92.2773L142.587 92.0635C140.48 90.8907 138.803 89.189 137.555 86.9434H137.556C136.325 84.7006 135.696 81.9488 135.696 78.666C135.696 75.3731 136.325 72.6165 137.556 70.374L137.555 70.373C138.725 68.2585 140.272 66.6316 142.196 65.4785L142.586 65.2549C144.699 64.0883 147.082 63.5 149.745 63.5ZM182.835 63.5C185.323 63.5001 187.568 64.0169 189.581 65.043L189.98 65.2549H189.981C192.097 66.4179 193.779 68.1195 195.026 70.375C196.267 72.6172 196.899 75.3736 196.899 78.666C196.899 81.9584 196.267 84.7149 195.026 86.957C193.857 89.0717 192.306 90.7001 190.373 91.8535L189.981 92.0771L189.98 92.0781C187.866 93.245 185.489 93.832 182.835 93.832C180.339 93.832 178.089 93.3115 176.076 92.2773L175.677 92.0635C173.57 90.8907 171.892 89.1892 170.645 86.9434H170.646C169.415 84.7007 168.786 81.9488 168.786 78.666C168.786 75.3731 169.415 72.6165 170.646 70.374L170.645 70.373C171.814 68.2586 173.362 66.6316 175.285 65.4785L175.675 65.2549C177.789 64.0882 180.172 63.5 182.835 63.5ZM112.709 63.917L119.04 78.8613L119.491 79.9277L119.958 78.8672L126.531 63.917H132.731L124.043 83.4971L119.252 93.6846L114.454 83.4902L105.769 63.917H112.709ZM210.496 63.917L218.113 82.4893L218.24 82.7998H219.269L219.396 82.4893L227.012 63.917H235.306V93.415H229.127V74.6816H228.034L227.909 74.998L220.707 93.2217H216.802L209.6 74.8945L209.475 74.5771H208.381V93.415H202.202V63.917H210.496ZM149.745 68.9629C148.299 68.9629 147.016 69.2919 145.917 69.9658L145.699 70.1045C144.623 70.8253 143.794 71.8575 143.203 73.1748L143.088 73.4424L143.087 73.4443C142.5 74.8906 142.217 76.6369 142.217 78.666C142.217 80.5686 142.466 82.2222 142.98 83.6133L143.087 83.8877L143.088 83.8906C143.648 85.2457 144.444 86.317 145.487 87.0791L145.699 87.2275C146.846 87.9956 148.202 88.3691 149.745 88.3691C151.297 88.3691 152.655 87.9962 153.793 87.2266L153.792 87.2256C154.939 86.4568 155.801 85.3354 156.388 83.8906C156.986 82.4433 157.274 80.6962 157.274 78.666C157.274 76.7629 157.02 75.1086 156.496 73.7168L156.388 73.4424C155.801 71.9968 154.939 70.8734 153.791 70.1045H153.79C152.652 69.3361 151.296 68.9629 149.745 68.9629ZM182.835 68.9629C181.292 68.9629 179.936 69.3366 178.789 70.1045C177.713 70.8253 176.884 71.8577 176.293 73.1748L176.178 73.4424L176.177 73.4443C175.59 74.8906 175.306 76.6369 175.306 78.666C175.306 80.5686 175.554 82.2222 176.069 83.6133L176.177 83.8877L176.178 83.8906C176.775 85.336 177.641 86.4587 178.789 87.2275C179.936 87.9955 181.292 88.3691 182.835 88.3691C184.386 88.3691 185.743 87.9954 186.881 87.2266L186.882 87.2275C188.029 86.4583 188.892 85.3346 189.479 83.8877L189.479 83.8867C190.074 82.4402 190.363 80.6948 190.363 78.666C190.363 76.6367 190.074 74.891 189.478 73.4443H189.479C188.892 71.9977 188.029 70.8746 186.882 70.1055H186.881C185.743 69.3367 184.386 68.9629 182.835 68.9629Z" stroke="black" stroke-opacity="0.2"/>
<defs>
<filter id="filter0_dddddd_0_1" x="50.2066" y="65.5239" width="34.2742" height="28.6668" filterUnits="userSpaceOnUse" color-interpolation-filters="sRGB">
<feFlood flood-opacity="0" result="BackgroundImageFix"/>
<feColorMatrix in="SourceAlpha" type="matrix" values="0 0 0 0 0 0 0 0 0 0 0 0 0 0 0 0 0 0 127 0" result="hardAlpha"/>
<feOffset dy="0.155601"/>
<feGaussianBlur stdDeviation="0.057319"/>
<feColorMatrix type="matrix" values="0 0 0 0 0.0509804 0 0 0 0 0.121569 0 0 0 0 0.396078 0 0 0 0.189957 0"/>
<feBlend mode="multiply" in2="BackgroundImageFix" result="effect1_dropShadow_0_1"/>
<feColorMatrix in="SourceAlpha" type="matrix" values="0 0 0 0 0 0 0 0 0 0 0 0 0 0 0 0 0 0 127 0" result="hardAlpha"/>
<feOffset dy="0.305287"/>
<feGaussianBlur stdDeviation="0.127482"/>
<feColorMatrix type="matrix" values="0 0 0 0 0.0509804 0 0 0 0 0.121569 0 0 0 0 0.396078 0 0 0 0.368551 0"/>
<feBlend mode="multiply" in2="effect1_dropShadow_0_1" result="effect2_dropShadow_0_1"/>
<feColorMatrix in="SourceAlpha" type="matrix" values="0 0 0 0 0 0 0 0 0 0 0 0 0 0 0 0 0 0 127 0" result="hardAlpha"/>
<feOffset dy="0.469499"/>
<feGaussianBlur stdDeviation="0.21833"/>
<feColorMatrix type="matrix" values="0 0 0 0 0.0509804 0 0 0 0 0.121569 0 0 0 0 0.396078 0 0 0 0.3 0"/>
<feBlend mode="multiply" in2="effect2_dropShadow_0_1" result="effect3_dropShadow_0_1"/>
<feColorMatrix in="SourceAlpha" type="matrix" values="0 0 0 0 0 0 0 0 0 0 0 0 0 0 0 0 0 0 127 0" result="hardAlpha"/>
<feOffset dy="0.688904"/>
<feGaussianBlur stdDeviation="0.69336"/>
<feColorMatrix type="matrix" values="0 0 0 0 0.0509804 0 0 0 0 0.121569 0 0 0 0 0.396078 0 0 0 0.3 0"/>
<feBlend mode="multiply" in2="effect3_dropShadow_0_1" result="effect4_dropShadow_0_1"/>
<feColorMatrix in="SourceAlpha" type="matrix" values="0 0 0 0 0 0 0 0 0 0 0 0 0 0 0 0 0 0 127 0" result="hardAlpha"/>
<feOffset dy="1.07196"/>
<feGaussianBlur stdDeviation="1.28906"/>
<feColorMatrix type="matrix" values="0 0 0 0 0.0509804 0 0 0 0 0.121569 0 0 0 0 0.396078 0 0 0 0.29 0"/>
<feBlend mode="overlay" in2="effect4_dropShadow_0_1" result="effect5_dropShadow_0_1"/>
<feColorMatrix in="SourceAlpha" type="matrix" values="0 0 0 0 0 0 0 0 0 0 0 0 0 0 0 0 0 0 127 0" result="hardAlpha"/>
<feOffset dy="2.83518"/>
<feGaussianBlur stdDeviation="2.26815"/>
<feColorMatrix type="matrix" values="0 0 0 0 0.0509804 0 0 0 0 0.121569 0 0 0 0 0.396078 0 0 0 0.45 0"/>
<feBlend mode="multiply" in2="effect5_dropShadow_0_1" result="effect6_dropShadow_0_1"/>
<feBlend mode="normal" in="SourceGraphic" in2="effect6_dropShadow_0_1" result="shape"/>
</filter>
<filter id="filter1_dddddd_0_1" x="76.9203" y="65.7129" width="17.4521" height="28.3369" filterUnits="userSpaceOnUse" color-interpolation-filters="sRGB">
<feFlood flood-opacity="0" result="BackgroundImageFix"/>
<feColorMatrix in="SourceAlpha" type="matrix" values="0 0 0 0 0 0 0 0 0 0 0 0 0 0 0 0 0 0 127 0" result="hardAlpha"/>
<feOffset dy="0.155601"/>
<feGaussianBlur stdDeviation="0.057319"/>
<feColorMatrix type="matrix" values="0 0 0 0 0.0509804 0 0 0 0 0.121569 0 0 0 0 0.396078 0 0 0 0.189957 0"/>
<feBlend mode="multiply" in2="BackgroundImageFix" result="effect1_dropShadow_0_1"/>
<feColorMatrix in="SourceAlpha" type="matrix" values="0 0 0 0 0 0 0 0 0 0 0 0 0 0 0 0 0 0 127 0" result="hardAlpha"/>
<feOffset dy="0.305287"/>
<feGaussianBlur stdDeviation="0.127482"/>
<feColorMatrix type="matrix" values="0 0 0 0 0.0509804 0 0 0 0 0.121569 0 0 0 0 0.396078 0 0 0 0.368551 0"/>
<feBlend mode="multiply" in2="effect1_dropShadow_0_1" result="effect2_dropShadow_0_1"/>
<feColorMatrix in="SourceAlpha" type="matrix" values="0 0 0 0 0 0 0 0 0 0 0 0 0 0 0 0 0 0 127 0" result="hardAlpha"/>
<feOffset dy="0.469499"/>
<feGaussianBlur stdDeviation="0.21833"/>
<feColorMatrix type="matrix" values="0 0 0 0 0.0509804 0 0 0 0 0.121569 0 0 0 0 0.396078 0 0 0 0.3 0"/>
<feBlend mode="multiply" in2="effect2_dropShadow_0_1" result="effect3_dropShadow_0_1"/>
<feColorMatrix in="SourceAlpha" type="matrix" values="0 0 0 0 0 0 0 0 0 0 0 0 0 0 0 0 0 0 127 0" result="hardAlpha"/>
<feOffset dy="0.688904"/>
<feGaussianBlur stdDeviation="0.69336"/>
<feColorMatrix type="matrix" values="0 0 0 0 0.0509804 0 0 0 0 0.121569 0 0 0 0 0.396078 0 0 0 0.3 0"/>
<feBlend mode="multiply" in2="effect3_dropShadow_0_1" result="effect4_dropShadow_0_1"/>
<feColorMatrix in="SourceAlpha" type="matrix" values="0 0 0 0 0 0 0 0 0 0 0 0 0 0 0 0 0 0 127 0" result="hardAlpha"/>
<feOffset dy="1.07196"/>
<feGaussianBlur stdDeviation="1.28906"/>
<feColorMatrix type="matrix" values="0 0 0 0 0.0509804 0 0 0 0 0.121569 0 0 0 0 0.396078 0 0 0 0.29 0"/>
<feBlend mode="overlay" in2="effect4_dropShadow_0_1" result="effect5_dropShadow_0_1"/>
<feColorMatrix in="SourceAlpha" type="matrix" values="0 0 0 0 0 0 0 0 0 0 0 0 0 0 0 0 0 0 127 0" result="hardAlpha"/>
<feOffset dy="2.83518"/>
<feGaussianBlur stdDeviation="2.26815"/>
<feColorMatrix type="matrix" values="0 0 0 0 0.0509804 0 0 0 0 0.121569 0 0 0 0 0.396078 0 0 0 0.45 0"/>
<feBlend mode="multiply" in2="effect5_dropShadow_0_1" result="effect6_dropShadow_0_1"/>
<feBlend mode="normal" in="SourceGraphic" in2="effect6_dropShadow_0_1" result="shape"/>
</filter>
<linearGradient id="paint0_linear_0_1" x1="72.2606" y1="51.096" x2="72.2606" y2="103.065" gradientUnits="userSpaceOnUse">
<stop stop-color="#A4C1FF"/>
<stop offset="1" stop-color="#0E78F9"/>
</linearGradient>
<linearGradient id="paint1_linear_0_1" x1="67.3438" y1="67.225" x2="67.3438" y2="86.8192" gradientUnits="userSpaceOnUse">
<stop stop-color="white"/>
<stop offset="1" stop-color="#C5D4F7"/>
</linearGradient>
<linearGradient id="paint2_linear_0_1" x1="67.3438" y1="67.225" x2="67.3438" y2="86.8193" gradientUnits="userSpaceOnUse">
<stop stop-color="white"/>
<stop offset="1" stop-color="#637ACA"/>
</linearGradient>
<linearGradient id="paint3_linear_0_1" x1="85.6464" y1="67.4141" x2="85.6464" y2="86.6782" gradientUnits="userSpaceOnUse">
<stop stop-color="white"/>
<stop offset="1" stop-color="#C5D4F7"/>
</linearGradient>
<linearGradient id="paint4_linear_0_1" x1="85.6464" y1="67.4141" x2="85.6464" y2="86.6782" gradientUnits="userSpaceOnUse">
<stop stop-color="white"/>
<stop offset="1" stop-color="#637ACA"/>
</linearGradient>
</defs>
</svg>
